<svg width="180" height="50" viewBox="0 0 180 50" fill="none" xmlns="http://www.w3.org/2000/svg">
  <defs>
    <linearGradient id="gradient" x1="0%" y1="0%" x2="100%" y2="0%">
      <stop offset="0%" stop-color="#4a23cf" />
      <stop offset="100%" stop-color="#ff6b2b" />
    </linearGradient>
  </defs>
  <path d="M15.904 37V13.8H21.888V24.568H22.32L30.592 13.8H37.36L28.064 25.624L37.872 37H31.168L23.6 27.944H21.888V37H15.904ZM41.8591 37V13.8H57.2671V18.712H47.8431V22.728H56.4351V27.64H47.8431V32.088H57.3071V37H41.8591ZM72.7504 37.432C70.5744 37.432 68.6144 37.016 66.8704 36.184C65.1584 35.352 63.8144 34.168 62.8384 32.632C61.8624 31.096 61.3744 29.288 61.3744 27.208C61.3744 25.128 61.8624 23.32 62.8384 21.784C63.8144 20.248 65.1584 19.064 66.8704 18.232C68.6144 17.4 70.5744 16.984 72.7504 16.984C74.7664 16.984 76.5584 17.336 78.1264 18.04C79.7264 18.744 81.0224 19.768 82.0144 21.112L77.8304 24.28C76.9904 23.464 76.1584 22.872 75.3344 22.504C74.5104 22.136 73.6384 21.952 72.7184 21.952C71.6304 21.952 70.6704 22.184 69.8384 22.648C69.0064 23.112 68.3584 23.768 67.8944 24.616C67.4304 25.464 67.1984 26.456 67.1984 27.592C67.1984 28.68 67.4304 29.64 67.8944 30.472C68.3584 31.304 69.0064 31.944 69.8384 32.392C70.6704 32.84 71.6304 33.064 72.7184 33.064C73.6384 33.064 74.5104 32.88 75.3344 32.512C76.1584 32.144 76.9904 31.552 77.8304 30.736L82.0144 33.904C81.0224 35.248 79.7264 36.272 78.1264 36.976C76.5584 37.28 74.7664 37.432 72.7504 37.432ZM96.7898 37V30.088L87.2538 13.8H93.9338L99.8858 24.28H100.318L106.302 13.8H112.95L103.414 30.088V37H96.7898ZM116.396 37V13.8H129.404C131.98 13.8 134.14 14.296 135.884 15.288C137.628 16.28 138.924 17.64 139.772 19.368C140.62 21.096 141.044 23.064 141.044 25.272C141.044 27.48 140.62 29.448 139.772 31.176C138.924 32.904 137.628 34.264 135.884 35.256C134.14 36.248 131.98 36.744 129.404 36.744H116.396V37ZM122.38 31.832H128.7C130.092 31.832 131.244 31.544 132.156 30.968C133.068 30.392 133.74 29.608 134.172 28.616C134.604 27.624 134.82 26.504 134.82 25.256C134.82 24.008 134.604 22.888 134.172 21.896C133.74 20.904 133.068 20.12 132.156 19.544C131.244 18.968 130.092 18.68 128.7 18.68H122.38V31.832ZM145.697 37V13.8H161.105V18.712H151.681V22.728H160.273V27.64H151.681V32.088H161.145V37H145.697ZM165.249 37L174.953 13.8H182.473L192.177 37H185.873L184.057 32.696H173.289L171.473 37H165.249ZM175.065 28.28H182.281L178.713 19.544H178.633L175.065 28.28Z" fill="url(#gradient)"/>
</svg> 